<svg xmlns="http://www.w3.org/2000/svg" viewBox="0 0 800 800"><defs><filter id="a" x="-100%" y="-100%" width="400%" height="400%" filterUnits="objectBoundingBox" primitiveUnits="userSpaceOnUse" color-interpolation-filters="sRGB"><feGaussianBlur stdDeviation="30" x="0%" y="0%" width="100%" height="100%" in="SourceGraphic" result="blur"/></filter><filter id="f" x="-100%" y="-100%" width="400%" height="400%" filterUnits="objectBoundingBox" primitiveUnits="userSpaceOnUse" color-interpolation-filters="sRGB"><feGaussianBlur stdDeviation="2" x="0%" y="0%" width="100%" height="100%" in="SourceGraphic" result="blur"/></filter><filter id="d" x="-100%" y="-100%" width="400%" height="400%" filterUnits="objectBoundingBox" primitiveUnits="userSpaceOnUse" color-interpolation-filters="sRGB"><feDropShadow stdDeviation="10" dx="10" dy="10" flood-color="hsl(0,100%,37.75%)" flood-opacity=".2" x="0%" y="0%" width="100%" height="100%" result="dropShadow"/></filter><filter id="g" x="-100%" y="-100%" width="400%" height="400%" filterUnits="objectBoundingBox" primitiveUnits="userSpaceOnUse" color-interpolation-filters="sRGB"><feDropShadow stdDeviation="10" dx="10" dy="10" flood-color="hsl(0,0%,0%)" flood-opacity=".2" x="0%" y="0%" width="100%" height="100%" result="dropShadow"/></filter><radialGradient id="b" r="93%" cx="20%" cy="20%"><stop offset="70%" stop-color="hsl(70, 69%, 50%)" stop-opacity="0"/><stop offset="97%" stop-color="hsl(71.44,100%,32.47%)"/></radialGradient><radialGradient id="c" r="65%" cx="28%" cy="20%"><stop offset="0%" stop-color="hsl(65.88,100%,68.98%)" stop-opacity=".75"/><stop offset="100%" stop-color="hsl(70, 69%, 50%)" stop-opacity="0"/></radialGradient><linearGradient id="e" x1="50%" y1="0%" x2="50%" y2="100%"><stop offset="0%" stop-color="hsl(16.84,100%,70.89%)"/><stop offset="100%" stop-color="hsla(0, 98%, 52%, 1)" stop-opacity="0"/></linearGradient><linearGradient id="h" x1="50%" y1="0%" x2="50%" y2="100%"><stop offset="0%" stop-color="hsl(339.45,0%,33.2%)"/><stop offset="100%" stop-color="hsla(3, 18%, 0%, 1)" stop-opacity="0"/></linearGradient></defs><g stroke-linecap="round"><path d="M650 450c0 152.96-97.04 276.95-250 276.95-152.96 0-250-124-250-276.95 0-152.96 97.04-276.95 250-276.95 152.96 0 250 124 250 276.95Z" fill="hsl(71.44,100%,32.47%)" opacity=".25" filter="url(#a)"/><path d="M650 400c0 145.13-104.87 262.79-250 262.79S150 545.13 150 400c0-145.13 104.87-262.79 250-262.79S650 254.87 650 400Z" fill="hsl(70, 69%, 50%)"/><path d="M650 400c0 145.13-104.87 262.79-250 262.79S150 545.13 150 400c0-145.13 104.87-262.79 250-262.79S650 254.87 650 400Z" fill="url(#b)"/><path d="M650 400c0 145.13-104.87 262.79-250 262.79S150 545.13 150 400c0-145.13 104.87-262.79 250-262.79S650 254.87 650 400Z" fill="url(#c)"/><path d="M297 365.5q50 50 50 0" stroke-width="38" stroke="hsla(0, 98%, 52%, 1)" fill="none" filter="url(#d)"/><path d="M297 365.5q50 50 50 0" stroke-width="12.67" stroke="url(#e)" fill="none" filter="url(#f)"/><path d="M474 387.5q50 50 50 0" stroke-width="38" stroke="hsla(0, 98%, 52%, 1)" fill="none" filter="url(#d)"/><path d="M474 387.5q50 50 50 0" stroke-width="12.67" stroke="url(#e)" fill="none" filter="url(#f)"/><path d="M337 530.5q50 50 100 0" stroke-width="38" stroke="hsla(3, 18%, 0%, 1)" fill="none" filter="url(#g)" transform="rotate(19 400 400)"/><path d="M337 530.5q50 50 100 0" stroke-width="12.67" stroke="url(#h)" fill="none" filter="url(#f)" transform="rotate(19 400 400)"/></g></svg>