<svg xmlns="http://www.w3.org/2000/svg" viewBox="0 0 800 800"><defs><filter id="a" x="-100%" y="-100%" width="400%" height="400%" filterUnits="objectBoundingBox" primitiveUnits="userSpaceOnUse" color-interpolation-filters="sRGB"><feGaussianBlur stdDeviation="30" x="0%" y="0%" width="100%" height="100%" in="SourceGraphic" result="blur"/></filter><filter id="f" x="-100%" y="-100%" width="400%" height="400%" filterUnits="objectBoundingBox" primitiveUnits="userSpaceOnUse" color-interpolation-filters="sRGB"><feGaussianBlur stdDeviation="2" x="0%" y="0%" width="100%" height="100%" in="SourceGraphic" result="blur"/></filter><filter id="d" x="-100%" y="-100%" width="400%" height="400%" filterUnits="objectBoundingBox" primitiveUnits="userSpaceOnUse" color-interpolation-filters="sRGB"><feDropShadow stdDeviation="10" dx="10" dy="10" flood-color="hsl(0,100%,10%)" flood-opacity=".2" x="0%" y="0%" width="100%" height="100%" result="dropShadow"/></filter><filter id="g" x="-100%" y="-100%" width="400%" height="400%" filterUnits="objectBoundingBox" primitiveUnits="userSpaceOnUse" color-interpolation-filters="sRGB"><feDropShadow stdDeviation="10" dx="10" dy="10" flood-color="hsl(243.3,53.66%,38.15%)" flood-opacity=".2" x="0%" y="0%" width="100%" height="100%" result="dropShadow"/></filter><radialGradient id="b" r="93%" cx="20%" cy="20%"><stop offset="70%" stop-color="hsl(265, 9%, 85%)" stop-opacity="0"/><stop offset="97%" stop-color="hsl(265.66,3.79%,65.52%)"/></radialGradient><radialGradient id="c" r="65%" cx="28%" cy="20%"><stop offset="0%" stop-color="hsl(0,0%,100%)" stop-opacity=".75"/><stop offset="100%" stop-color="hsl(265, 9%, 85%)" stop-opacity="0"/></radialGradient><linearGradient gradientTransform="rotate(-25)" id="e" x1="50%" y1="0%" x2="50%" y2="100%"><stop offset="20%" stop-color="hsl(5.51,41.75%,57.49%)"/><stop offset="100%" stop-color="hsla(0, 62%, 22%, 1)" stop-opacity="0"/></linearGradient><linearGradient id="h" x1="50%" y1="0%" x2="50%" y2="100%"><stop offset="0%" stop-color="hsl(261.67,100%,85.32%)"/><stop offset="100%" stop-color="hsla(249, 50%, 56%, 1)" stop-opacity="0"/></linearGradient></defs><g stroke-linecap="round" transform="rotate(329 400 400)"><path d="M650 450c0 152.96-97.04 276.95-250 276.95-152.96 0-250-124-250-276.95 0-152.96 97.04-276.95 250-276.95 152.96 0 250 124 250 276.95Z" fill="hsl(265.66,3.79%,65.52%)" opacity=".25" filter="url(#a)"/><path d="M650 400c0 161.67-88.33 264.25-250 264.25-161.67 0-250-102.58-250-264.25 0-161.67 88.33-264.25 250-264.25 161.67 0 250 102.58 250 264.25Z" fill="hsl(265, 9%, 85%)"/><path d="M650 400c0 161.67-88.33 264.25-250 264.25-161.67 0-250-102.58-250-264.25 0-161.67 88.33-264.25 250-264.25 161.67 0 250 102.58 250 264.25Z" fill="url(#b)"/><path d="M650 400c0 161.67-88.33 264.25-250 264.25-161.67 0-250-102.58-250-264.25 0-161.67 88.33-264.25 250-264.25 161.67 0 250 102.58 250 264.25Z" fill="url(#c)"/><ellipse rx="23.5" ry="25" cx="379" cy="375" fill="hsla(0, 62%, 22%, 1)" filter="url(#d)"/><ellipse rx="23.5" ry="25" cx="379" cy="375" fill="url(#e)" filter="url(#f)"/><ellipse rx="23.5" ry="25" cx="423" cy="375" fill="hsla(0, 62%, 22%, 1)" filter="url(#d)"/><ellipse rx="23.5" ry="25" cx="423" cy="375" fill="url(#e)" filter="url(#f)"/><path d="M307 512.5q136 50 186 0" stroke-width="33" stroke="hsla(249, 50%, 56%, 1)" fill="none" filter="url(#g)"/><path d="M307 512.5q136 50 186 0" stroke-width="11" stroke="url(#h)" fill="none" filter="url(#f)"/></g></svg>