<svg xmlns="http://www.w3.org/2000/svg" viewBox="0 0 800 800"><defs><filter id="a" x="-100%" y="-100%" width="400%" height="400%" filterUnits="objectBoundingBox" primitiveUnits="userSpaceOnUse" color-interpolation-filters="sRGB"><feGaussianBlur stdDeviation="30" x="0%" y="0%" width="100%" height="100%" in="SourceGraphic" result="blur"/></filter><filter id="f" x="-100%" y="-100%" width="400%" height="400%" filterUnits="objectBoundingBox" primitiveUnits="userSpaceOnUse" color-interpolation-filters="sRGB"><feGaussianBlur stdDeviation="2" x="0%" y="0%" width="100%" height="100%" in="SourceGraphic" result="blur"/></filter><filter id="d" x="-100%" y="-100%" width="400%" height="400%" filterUnits="objectBoundingBox" primitiveUnits="userSpaceOnUse" color-interpolation-filters="sRGB"><feDropShadow stdDeviation="10" dx="10" dy="10" flood-color="hsl(0,0%,0%)" flood-opacity=".2" x="0%" y="0%" width="100%" height="100%" result="dropShadow"/></filter><filter id="g" x="-100%" y="-100%" width="400%" height="400%" filterUnits="objectBoundingBox" primitiveUnits="userSpaceOnUse" color-interpolation-filters="sRGB"><feDropShadow stdDeviation="10" dx="10" dy="10" flood-color="hsl(240,100%,19.6%)" flood-opacity=".2" x="0%" y="0%" width="100%" height="100%" result="dropShadow"/></filter><radialGradient id="b" r="93%" cx="20%" cy="20%"><stop offset="70%" stop-color="hsl(115, 100%, 84%)" stop-opacity="0"/><stop offset="97%" stop-color="hsl(116.08,43.18%,64.42%)"/></radialGradient><radialGradient id="c" r="65%" cx="28%" cy="20%"><stop offset="0%" stop-color="hsl(104.19,100%,93.77%)" stop-opacity=".75"/><stop offset="100%" stop-color="hsl(115, 100%, 84%)" stop-opacity="0"/></radialGradient><linearGradient gradientTransform="rotate(-25)" id="e" x1="50%" y1="0%" x2="50%" y2="100%"><stop offset="20%" stop-color="hsl(116.08,13.89%,41.4%)"/><stop offset="100%" stop-color="hsla(115, 58%, 9%, 1)" stop-opacity="0"/></linearGradient><linearGradient id="h" x1="50%" y1="0%" x2="50%" y2="100%"><stop offset="0%" stop-color="hsl(253.71,90.99%,70.94%)"/><stop offset="100%" stop-color="hsla(242, 69%, 34%, 1)" stop-opacity="0"/></linearGradient></defs><g stroke-linecap="round" transform="rotate(16 400 400)"><path d="M625 450c0 137.66-87.34 249.26-225 249.26S175 587.66 175 450s87.34-249.26 225-249.26S625 312.34 625 450Z" fill="hsl(116.08,43.18%,64.42%)" opacity=".25" filter="url(#a)"/><path d="M625 400c0 145.5-79.5 263.46-225 263.46S175 545.51 175 400c0-145.5 79.5-263.46 225-263.46S625 254.49 625 400Z" fill="hsl(115, 100%, 84%)"/><path d="M625 400c0 145.5-79.5 263.46-225 263.46S175 545.51 175 400c0-145.5 79.5-263.46 225-263.46S625 254.49 625 400Z" fill="url(#b)"/><path d="M625 400c0 145.5-79.5 263.46-225 263.46S175 545.51 175 400c0-145.5 79.5-263.46 225-263.46S625 254.49 625 400Z" fill="url(#c)"/><ellipse rx="24.5" ry="25" cx="350" cy="375" fill="hsla(115, 58%, 9%, 1)" filter="url(#d)"/><ellipse rx="24.5" ry="25" cx="350" cy="375" fill="url(#e)" filter="url(#f)"/><ellipse rx="23.5" ry="25" cx="545" cy="345" fill="hsla(115, 58%, 9%, 1)" filter="url(#d)"/><ellipse rx="23.5" ry="25" cx="545" cy="345" fill="url(#e)" filter="url(#f)"/><path d="M350 535.5q53 50 100 0" stroke-width="20" stroke="hsla(242, 69%, 34%, 1)" fill="none" filter="url(#g)"/><path d="M350 535.5q53 50 100 0" stroke-width="6.67" stroke="url(#h)" fill="none" filter="url(#f)"/></g></svg>