<svg xmlns="http://www.w3.org/2000/svg" viewBox="0 0 800 800"><defs><filter id="a" x="-100%" y="-100%" width="400%" height="400%" filterUnits="objectBoundingBox" primitiveUnits="userSpaceOnUse" color-interpolation-filters="sRGB"><feGaussianBlur stdDeviation="30" x="0%" y="0%" width="100%" height="100%" in="SourceGraphic" result="blur"/></filter><filter id="f" x="-100%" y="-100%" width="400%" height="400%" filterUnits="objectBoundingBox" primitiveUnits="userSpaceOnUse" color-interpolation-filters="sRGB"><feGaussianBlur stdDeviation="2" x="0%" y="0%" width="100%" height="100%" in="SourceGraphic" result="blur"/></filter><filter id="d" x="-100%" y="-100%" width="400%" height="400%" filterUnits="objectBoundingBox" primitiveUnits="userSpaceOnUse" color-interpolation-filters="sRGB"><feDropShadow stdDeviation="10" dx="10" dy="10" flood-color="hsl(311.22,100%,9.12%)" flood-opacity=".2" x="0%" y="0%" width="100%" height="100%" result="dropShadow"/></filter><filter id="g" x="-100%" y="-100%" width="400%" height="400%" filterUnits="objectBoundingBox" primitiveUnits="userSpaceOnUse" color-interpolation-filters="sRGB"><feDropShadow stdDeviation="10" dx="10" dy="10" flood-color="hsl(0,100%,35.52%)" flood-opacity=".2" x="0%" y="0%" width="100%" height="100%" result="dropShadow"/></filter><radialGradient id="b" r="93%" cx="20%" cy="20%"><stop offset="70%" stop-color="hsl(30, 100%, 40%)" stop-opacity="0"/><stop offset="97%" stop-color="hsl(23.02,100%,29.16%)"/></radialGradient><radialGradient id="c" r="65%" cx="28%" cy="20%"><stop offset="0%" stop-color="hsl(27.5,100%,61.64%)" stop-opacity=".75"/><stop offset="100%" stop-color="hsl(30, 100%, 40%)" stop-opacity="0"/></radialGradient><linearGradient id="e" x1="50%" y1="0%" x2="50%" y2="100%"><stop offset="0%" stop-color="hsl(312.17,37.11%,56.98%)"/><stop offset="100%" stop-color="hsla(308, 83%, 19%, 1)" stop-opacity="0"/></linearGradient><linearGradient id="h" x1="50%" y1="0%" x2="50%" y2="100%"><stop offset="0%" stop-color="hsl(16.31,100%,70.18%)"/><stop offset="100%" stop-color="hsla(0, 93%, 49%, 1)" stop-opacity="0"/></linearGradient></defs><g stroke-linecap="round" transform="rotate(352 400 400)"><path d="M650 450c0 145.13-104.87 262.79-250 262.79S150 595.13 150 450c0-145.13 104.87-262.79 250-262.79S650 304.87 650 450Z" fill="hsl(23.02,100%,29.16%)" opacity=".25" filter="url(#a)"/><circle r="250" cx="400" cy="400" fill="hsl(30, 100%, 40%)"/><circle r="250" cx="400" cy="400" fill="url(#b)"/><circle r="250" cx="400" cy="400" fill="url(#c)"/><path d="M283.5 394.5q50-78 133 0" stroke-width="25" stroke="hsla(308, 83%, 19%, 1)" fill="none" filter="url(#d)"/><path d="M283.5 394.5q50-78 133 0" stroke-width="8.33" stroke="url(#e)" fill="none" filter="url(#f)"/><path d="M454 345.75q76 61 98 0" stroke-width="25" stroke="hsla(308, 83%, 19%, 1)" fill="none" filter="url(#d)"/><path d="M454 345.75q76 61 98 0" stroke-width="8.33" stroke="url(#e)" fill="none" filter="url(#f)"/><path d="M377 527.25q31 47 42 0" stroke-width="25" stroke="hsla(0, 93%, 49%, 1)" fill="none" filter="url(#g)" transform="rotate(331 400 400)"/><path d="M377 527.25q31 47 42 0" stroke-width="8.33" stroke="url(#h)" fill="none" filter="url(#f)" transform="rotate(331 400 400)"/></g></svg>