<svg xmlns="http://www.w3.org/2000/svg" viewBox="0 0 800 800"><defs><filter id="a" x="-100%" y="-100%" width="400%" height="400%" filterUnits="objectBoundingBox" primitiveUnits="userSpaceOnUse" color-interpolation-filters="sRGB"><feGaussianBlur stdDeviation="30" x="0%" y="0%" width="100%" height="100%" in="SourceGraphic" result="blur"/></filter><filter id="f" x="-100%" y="-100%" width="400%" height="400%" filterUnits="objectBoundingBox" primitiveUnits="userSpaceOnUse" color-interpolation-filters="sRGB"><feGaussianBlur stdDeviation="2" x="0%" y="0%" width="100%" height="100%" in="SourceGraphic" result="blur"/></filter><filter id="d" x="-100%" y="-100%" width="400%" height="400%" filterUnits="objectBoundingBox" primitiveUnits="userSpaceOnUse" color-interpolation-filters="sRGB"><feDropShadow stdDeviation="10" dx="10" dy="10" flood-color="hsl(247.76,100%,12.79%)" flood-opacity=".2" x="0%" y="0%" width="100%" height="100%" result="dropShadow"/></filter><filter id="g" x="-100%" y="-100%" width="400%" height="400%" filterUnits="objectBoundingBox" primitiveUnits="userSpaceOnUse" color-interpolation-filters="sRGB"><feDropShadow stdDeviation="10" dx="10" dy="10" flood-color="hsl(0,100%,38.12%)" flood-opacity=".2" x="0%" y="0%" width="100%" height="100%" result="dropShadow"/></filter><radialGradient id="b" r="93%" cx="20%" cy="20%"><stop offset="70%" stop-color="hsl(41, 100%, 67%)" stop-opacity="0"/><stop offset="97%" stop-color="hsl(42.83,69.22%,46.44%)"/></radialGradient><radialGradient id="c" r="65%" cx="28%" cy="20%"><stop offset="0%" stop-color="hsl(58.93,100%,76.62%)" stop-opacity=".75"/><stop offset="100%" stop-color="hsl(41, 100%, 67%)" stop-opacity="0"/></radialGradient><linearGradient id="e" x1="50%" y1="0%" x2="50%" y2="100%"><stop offset="0%" stop-color="hsl(261.15,46.34%,63.69%)"/><stop offset="100%" stop-color="hsla(257, 52%, 28%, 1)" stop-opacity="0"/></linearGradient><linearGradient id="h" x1="50%" y1="0%" x2="50%" y2="100%"><stop offset="0%" stop-color="hsl(18.46,100%,70.18%)"/><stop offset="100%" stop-color="hsl(3, 100%, 51%)" stop-opacity="0"/></linearGradient></defs><g stroke-linecap="round"><path d="M553 450c0 93.61-59.39 169.5-153 169.5S247 543.6 247 450s59.39-169.5 153-169.5S553 356.4 553 450Z" fill="hsl(42.83,69.22%,46.44%)" opacity=".25" filter="url(#a)"/><path d="M553 400c0 98.94-54.06 179.15-153 179.15S247 498.95 247 400c0-98.94 54.06-179.15 153-179.15S553 301.05 553 400Z" fill="hsl(41, 100%, 67%)"/><path d="M553 400c0 98.94-54.06 179.15-153 179.15S247 498.95 247 400c0-98.94 54.06-179.15 153-179.15S553 301.05 553 400Z" fill="url(#b)"/><path d="M553 400c0 98.94-54.06 179.15-153 179.15S247 498.95 247 400c0-98.94 54.06-179.15 153-179.15S553 301.05 553 400Z" fill="url(#c)"/><path d="M234 362.5q-1 50 128 0" stroke-width="20" stroke="hsla(257, 52%, 28%, 1)" fill="none" filter="url(#d)"/><path d="M234 362.5q-1 50 128 0" stroke-width="6.67" stroke="url(#e)" fill="none" filter="url(#f)"/><path d="M433 362.5q116 50 124 0" stroke-width="20" stroke="hsla(257, 52%, 28%, 1)" fill="none" filter="url(#d)"/><path d="M433 362.5q116 50 124 0" stroke-width="6.67" stroke="url(#e)" fill="none" filter="url(#f)"/><path d="M350 512.5q50 50 100 0" stroke-width="20" stroke="hsl(3, 100%, 51%)" fill="none" filter="url(#g)"/><path d="M350 512.5q50 50 100 0" stroke-width="6.67" stroke="url(#h)" fill="none" filter="url(#f)"/></g></svg>