<svg xmlns="http://www.w3.org/2000/svg" viewBox="0 0 800 800"><defs><filter id="a" x="-100%" y="-100%" width="400%" height="400%" filterUnits="objectBoundingBox" primitiveUnits="userSpaceOnUse" color-interpolation-filters="sRGB"><feGaussianBlur stdDeviation="30" x="0%" y="0%" width="100%" height="100%" in="SourceGraphic" result="blur"/></filter><filter id="f" x="-100%" y="-100%" width="400%" height="400%" filterUnits="objectBoundingBox" primitiveUnits="userSpaceOnUse" color-interpolation-filters="sRGB"><feGaussianBlur stdDeviation="2" x="0%" y="0%" width="100%" height="100%" in="SourceGraphic" result="blur"/></filter><filter id="d" x="-100%" y="-100%" width="400%" height="400%" filterUnits="objectBoundingBox" primitiveUnits="userSpaceOnUse" color-interpolation-filters="sRGB"><feDropShadow stdDeviation="10" dx="10" dy="10" flood-color="hsl(120,100%,12.47%)" flood-opacity=".2" x="0%" y="0%" width="100%" height="100%" result="dropShadow"/></filter><filter id="g" x="-100%" y="-100%" width="400%" height="400%" filterUnits="objectBoundingBox" primitiveUnits="userSpaceOnUse" color-interpolation-filters="sRGB"><feDropShadow stdDeviation="10" dx="10" dy="10" flood-color="hsl(0,100%,38.12%)" flood-opacity=".2" x="0%" y="0%" width="100%" height="100%" result="dropShadow"/></filter><radialGradient id="b" r="93%" cx="20%" cy="20%"><stop offset="70%" stop-color="hsl(115, 100%, 84%)" stop-opacity="0"/><stop offset="97%" stop-color="hsl(116.08,43.18%,64.42%)"/></radialGradient><radialGradient id="c" r="65%" cx="28%" cy="20%"><stop offset="0%" stop-color="hsl(104.19,100%,93.77%)" stop-opacity=".75"/><stop offset="100%" stop-color="hsl(115, 100%, 84%)" stop-opacity="0"/></radialGradient><linearGradient id="e" x1="50%" y1="0%" x2="50%" y2="100%"><stop offset="0%" stop-color="hsl(108.31,49.02%,61.22%)"/><stop offset="100%" stop-color="hsla(115, 76%, 24%, 1)" stop-opacity="0"/></linearGradient><linearGradient id="h" x1="50%" y1="0%" x2="50%" y2="100%"><stop offset="0%" stop-color="hsl(18.46,100%,70.18%)"/><stop offset="100%" stop-color="hsl(3, 100%, 51%)" stop-opacity="0"/></linearGradient></defs><g stroke-linecap="round"><path d="M592.5 450c0 117.78-74.72 213.25-192.5 213.25S207.5 567.78 207.5 450 282.22 236.75 400 236.75 592.5 332.22 592.5 450Z" fill="hsl(116.08,43.18%,64.42%)" opacity=".25" filter="url(#a)"/><path d="M592.5 400c0 124.49-68.01 203.47-192.5 203.47S207.5 524.49 207.5 400 275.51 196.53 400 196.53 592.5 275.51 592.5 400Z" fill="hsl(115, 100%, 84%)"/><path d="M592.5 400c0 124.49-68.01 203.47-192.5 203.47S207.5 524.49 207.5 400 275.51 196.53 400 196.53 592.5 275.51 592.5 400Z" fill="url(#b)"/><path d="M592.5 400c0 124.49-68.01 203.47-192.5 203.47S207.5 524.49 207.5 400 275.51 196.53 400 196.53 592.5 275.51 592.5 400Z" fill="url(#c)"/><path d="M325 254.25q50 63 50 0" stroke-width="8" stroke="hsla(115, 76%, 24%, 1)" fill="none" filter="url(#d)"/><path d="M325 254.25q50 63 50 0" stroke-width="2.67" stroke="url(#e)" fill="none" filter="url(#f)"/><path d="M461 262.5q50 50 50 0" stroke-width="8" stroke="hsla(115, 76%, 24%, 1)" fill="none" filter="url(#d)"/><path d="M461 262.5q50 50 50 0" stroke-width="2.67" stroke="url(#e)" fill="none" filter="url(#f)"/><path d="M317 347.75q103 129 166 0" fill="hsl(3, 100%, 51%)" filter="url(#g)"/><path d="M317 347.75q103 129 166 0" fill="url(#h)" filter="url(#f)"/></g></svg>