<svg xmlns="http://www.w3.org/2000/svg" viewBox="0 0 800 800"><defs><filter id="a" x="-100%" y="-100%" width="400%" height="400%" filterUnits="objectBoundingBox" primitiveUnits="userSpaceOnUse" color-interpolation-filters="sRGB"><feGaussianBlur stdDeviation="47" x="0%" y="0%" width="100%" height="100%" in="SourceGraphic" result="blur"/></filter><filter id="f" x="-100%" y="-100%" width="400%" height="400%" filterUnits="objectBoundingBox" primitiveUnits="userSpaceOnUse" color-interpolation-filters="sRGB"><feGaussianBlur stdDeviation="2" x="0%" y="0%" width="100%" height="100%" in="SourceGraphic" result="blur"/></filter><filter id="d" x="-100%" y="-100%" width="400%" height="400%" filterUnits="objectBoundingBox" primitiveUnits="userSpaceOnUse" color-interpolation-filters="sRGB"><feDropShadow stdDeviation="10" dx="10" dy="10" flood-color="hsl(292.25,100%,31.36%)" flood-opacity=".2" x="0%" y="0%" width="100%" height="100%" result="dropShadow"/></filter><filter id="g" x="-100%" y="-100%" width="400%" height="400%" filterUnits="objectBoundingBox" primitiveUnits="userSpaceOnUse" color-interpolation-filters="sRGB"><feDropShadow stdDeviation="10" dx="10" dy="10" flood-color="hsl(309.47,100%,39.08%)" flood-opacity=".2" x="0%" y="0%" width="100%" height="100%" result="dropShadow"/></filter><radialGradient id="b" r="93%" cx="20%" cy="20%"><stop offset="70%" stop-color="hsl(205, 69%, 50%)" stop-opacity="0"/><stop offset="97%" stop-color="hsl(204.74,100%,32.38%)"/></radialGradient><radialGradient id="c" r="65%" cx="28%" cy="20%"><stop offset="0%" stop-color="hsl(206.44,100%,71.03%)" stop-opacity=".75"/><stop offset="100%" stop-color="hsl(205, 69%, 50%)" stop-opacity="0"/></radialGradient><linearGradient gradientTransform="rotate(-25)" id="e" x1="50%" y1="0%" x2="50%" y2="100%"><stop offset="20%" stop-color="hsl(300,100%,78.92%)"/><stop offset="100%" stop-color="hsla(294, 75%, 47%, 1)" stop-opacity="0"/></linearGradient><linearGradient id="h" x1="50%" y1="0%" x2="50%" y2="100%"><stop offset="0%" stop-color="hsl(300,100%,80.59%)"/><stop offset="100%" stop-color="hsla(309, 100%, 51%, 1)" stop-opacity="0"/></linearGradient></defs><g stroke-linecap="round" transform="rotate(24 400 400)"><path d="M707 450c0 152.96-97.04 276.95-250 276.95-152.96 0-250-124-250-276.95 0-152.96 97.04-276.95 250-276.95 152.96 0 250 124 250 276.95Z" fill="hsl(204.74,100%,32.38%)" opacity=".34" filter="url(#a)"/><path d="M650 400c0 161.67-88.33 235.75-250 235.75-161.67 0-250-74.08-250-235.75 0-161.67 88.33-235.75 250-235.75 161.67 0 250 74.08 250 235.75Z" fill="hsl(205, 69%, 50%)"/><path d="M650 400c0 161.67-88.33 235.75-250 235.75-161.67 0-250-74.08-250-235.75 0-161.67 88.33-235.75 250-235.75 161.67 0 250 74.08 250 235.75Z" fill="url(#b)"/><path d="M650 400c0 161.67-88.33 235.75-250 235.75-161.67 0-250-74.08-250-235.75 0-161.67 88.33-235.75 250-235.75 161.67 0 250 74.08 250 235.75Z" fill="url(#c)"/><ellipse rx="23.5" ry="25" cx="350" cy="375" fill="hsla(294, 75%, 47%, 1)" filter="url(#d)"/><ellipse rx="23.5" ry="25" cx="350" cy="375" fill="url(#e)" filter="url(#f)"/><ellipse rx="23.5" ry="25" cx="450" cy="375" fill="hsla(294, 75%, 47%, 1)" filter="url(#d)"/><ellipse rx="23.5" ry="25" cx="450" cy="375" fill="url(#e)" filter="url(#f)"/><path d="M273 475q15 200 254 0" stroke-width="20" stroke="hsla(309, 100%, 51%, 1)" fill="none" filter="url(#g)"/><path d="M273 475q15 200 254 0" stroke-width="6.67" stroke="url(#h)" fill="none" filter="url(#f)"/></g></svg>