<svg xmlns="http://www.w3.org/2000/svg" viewBox="0 0 800 800"><defs><filter id="a" x="-100%" y="-100%" width="400%" height="400%" filterUnits="objectBoundingBox" primitiveUnits="userSpaceOnUse" color-interpolation-filters="sRGB"><feGaussianBlur stdDeviation="30" x="0%" y="0%" width="100%" height="100%" in="SourceGraphic" result="blur"/></filter><filter id="f" x="-100%" y="-100%" width="400%" height="400%" filterUnits="objectBoundingBox" primitiveUnits="userSpaceOnUse" color-interpolation-filters="sRGB"><feGaussianBlur stdDeviation="2" x="0%" y="0%" width="100%" height="100%" in="SourceGraphic" result="blur"/></filter><filter id="d" x="-100%" y="-100%" width="400%" height="400%" filterUnits="objectBoundingBox" primitiveUnits="userSpaceOnUse" color-interpolation-filters="sRGB"><feDropShadow stdDeviation="10" dx="10" dy="10" flood-color="hsl(0,0%,0%)" flood-opacity=".2" x="0%" y="0%" width="100%" height="100%" result="dropShadow"/></filter><filter id="g" x="-100%" y="-100%" width="400%" height="400%" filterUnits="objectBoundingBox" primitiveUnits="userSpaceOnUse" color-interpolation-filters="sRGB"><feDropShadow stdDeviation="10" dx="10" dy="10" flood-color="hsl(264.77,100%,33.32%)" flood-opacity=".2" x="0%" y="0%" width="100%" height="100%" result="dropShadow"/></filter><radialGradient id="b" r="93%" cx="20%" cy="20%"><stop offset="70%" stop-color="hsl(41, 100%, 67%)" stop-opacity="0"/><stop offset="97%" stop-color="hsl(42.83,69.22%,46.44%)"/></radialGradient><radialGradient id="c" r="65%" cx="28%" cy="20%"><stop offset="0%" stop-color="hsl(58.93,100%,76.62%)" stop-opacity=".75"/><stop offset="100%" stop-color="hsl(41, 100%, 67%)" stop-opacity="0"/></radialGradient><linearGradient id="e" x1="50%" y1="0%" x2="50%" y2="100%"><stop offset="0%" stop-color="hsl(339.45,0%,33.2%)"/><stop offset="100%" stop-opacity="0"/></linearGradient><linearGradient id="h" x1="50%" y1="0%" x2="50%" y2="100%"><stop offset="0%" stop-color="hsl(291.05,100%,75.64%)"/><stop offset="100%" stop-color="hsla(272, 84%, 47%, 1)" stop-opacity="0"/></linearGradient></defs><g stroke-linecap="round"><path d="M650 450c0 152.96-97.04 276.95-250 276.95-152.96 0-250-124-250-276.95 0-152.96 97.04-276.95 250-276.95 152.96 0 250 124 250 276.95Z" fill="hsl(42.83,69.22%,46.44%)" opacity=".25" filter="url(#a)"/><path d="M650 400c0 152.96-97.04 276.95-250 276.95-152.96 0-250-124-250-276.95 0-152.96 97.04-276.95 250-276.95 152.96 0 250 124 250 276.95Z" fill="hsl(41, 100%, 67%)"/><path d="M650 400c0 152.96-97.04 276.95-250 276.95-152.96 0-250-124-250-276.95 0-152.96 97.04-276.95 250-276.95 152.96 0 250 124 250 276.95Z" fill="url(#b)"/><path d="M650 400c0 152.96-97.04 276.95-250 276.95-152.96 0-250-124-250-276.95 0-152.96 97.04-276.95 250-276.95 152.96 0 250 124 250 276.95Z" fill="url(#c)"/><path d="M241 267.5q50 50 108 0" stroke-width="45" stroke="#000" fill="none" filter="url(#d)"/><path d="M241 267.5q50 50 108 0" stroke-width="15" stroke="url(#e)" fill="none" filter="url(#f)"/><path d="M439 275.5q50 50 120 0" stroke-width="45" stroke="#000" fill="none" filter="url(#d)"/><path d="M439 275.5q50 50 120 0" stroke-width="15" stroke="url(#e)" fill="none" filter="url(#f)"/><path d="M350 441.5q50 50 100 0" stroke-width="45" stroke="hsla(272, 84%, 47%, 1)" fill="none" filter="url(#g)"/><path d="M350 441.5q50 50 100 0" stroke-width="15" stroke="url(#h)" fill="none" filter="url(#f)"/></g></svg>